# xmcd
#
# Track frame offsets:
#	150
#	16502
#	28857
#	42312
#	51142
#	64772
#	78305
#	92560
#	106715
#	122897
#	136702
#	150805
#	162580
#	174487
#
# Disc length: 2541 seconds
#
# Revision: 0
# Processed by: cddbd v1.5.2PL0 Copyright (c) Steve Scherf et al.
# Submitted via: EasyCDDAExtractor 16.0.6.1
#
DISCID=9f09eb0e
DTITLE=Ζαμπέτας Γιώργος - Ντοκουμέντα-LP, Γ. Ζαμπέτας
DYEAR=1975
DGENRE=Λαϊκή
TTITLE0=Ζαμπέτας Γιώργος - Σ' αυτές τις στράτες [Αλ. Καγιάντας]
TTITLE1=Ζαμπέτας Γιώργος - Βαράτε βιολιτζήδες [Ν. Μπακογιάννης]
TTITLE2=Ζαμπέτας Γιώργος - Τα φιλοσόφισα πολύ [Ξεν. Φιλέρης]
TTITLE3=Ζαμπέτας Γιώργος - Πολυξένη [Θ. Σοφός]
TTITLE4=Ζαμπέτας Γιώργος - Στον Λευκό Πύργο [Ξεν. Φιλέρης]
TTITLE5=Ζαμπέτας Γιώργος - Ομολογώ [Β. Μακρύδης]
TTITLE6=Ζαμπέτας Γιώργος - Χίλιες μία νύχτες [Ξεν. Φιλέρης]
TTITLE7=Ζαμπέτας Γιώργος - Το πιτσιρίκι [Ξεν. Φιλέρης]
TTITLE8=Ζαμπέτας Γιώργος - Ο Φιφίκος [Ξεν. Φιλέρης]
TTITLE9=Ζαμπέτας Γιώργος - Η κομμαντατούρα [Ξεν. Φιλέρης]
TTITLE10=Ζαμπέτας Γιώργος - Μάννα ήρθανε ληστές [Ξεν. Φιλέρης]
TTITLE11=Ζαμπέτας Γιώργος - Άντε να σαλτάρω [Ξεν. Φιλέρης]
TTITLE12=Ζαμπέτας Γιώργος - Ο μπαρμπα Λευτέρης [Δ. Τζεφρώνης]
TTITLE13=Άνευ ερμηνευτού - Σ' αυτές τις στράτες [ορχηστρ., Αλ. Καγιάντας]
EXTD=
EXTT0=
EXTT1=
EXTT2=
EXTT3=
EXTT4=
EXTT5=
EXTT6=
EXTT7=
EXTT8=
EXTT9=
EXTT10=
EXTT11=
EXTT12=
EXTT13=
PLAYORDER=
